<?xml version="1.0" encoding="UTF-8"?><svg id="Layer_2" xmlns="http://www.w3.org/2000/svg" viewBox="0 0 56.88 56.88"><defs><style>.cls-1{fill:#fff;stroke-width:0px;}</style></defs><g id="Layer_1-2"><g id="Symbols"><g id="Regular-S"><path class="cls-1" d="m56.88,42.33l-.05-38.09c0-2.49-1.61-4.25-4.25-4.25H14.5c-2.44,0-4.1,1.9-4.1,4s1.86,3.91,3.96,3.91h11.28l19.34-.68-7.37,6.3L1.22,50c-.78.78-1.22,1.81-1.22,2.73,0,2.1,1.9,4.15,4.1,4.15,1.03,0,2-.39,2.78-1.17L43.31,19.24l6.4-7.37-.83,19.19v11.47c0,2.05,1.86,4,4,4s4-1.81,4-4.2Z"/></g></g></g></svg>